<svg xmlns="http://www.w3.org/2000/svg" xmlns:xlink="http://www.w3.org/1999/xlink" width="500" zoomAndPan="magnify" viewBox="0 0 375 374.999991" height="500" preserveAspectRatio="xMidYMid meet" version="1.0"><defs><clipPath id="9d748ef292"><path d="M 28.570312 39.261719 L 291 39.261719 L 291 294 L 28.570312 294 Z M 28.570312 39.261719 " clip-rule="nonzero"/></clipPath><clipPath id="70926581b5"><path d="M 73 114 L 346.570312 114 L 346.570312 295 L 73 295 Z M 73 114 " clip-rule="nonzero"/></clipPath><clipPath id="952e1fa49e"><path d="M 71 168 L 238 168 L 238 335.511719 L 71 335.511719 Z M 71 168 " clip-rule="nonzero"/></clipPath><clipPath id="2e1ac3b14f"><path d="M 28.570312 63 L 329 63 L 329 335.511719 L 28.570312 335.511719 Z M 28.570312 63 " clip-rule="nonzero"/></clipPath></defs><g clip-path="url(#9d748ef292)"><path fill="#63a335" d="M 289.757812 122.058594 C 290.707031 123.09375 290.652344 124.699219 289.617188 125.664062 L 108.78125 293.308594 C 107.746094 294.273438 106.136719 294.207031 105.171875 293.183594 L 29.554688 211.792969 C 28.589844 210.773438 28.652344 209.152344 29.683594 208.203125 L 210.503906 40.542969 C 211.539062 39.589844 213.164062 39.648438 214.117188 40.683594 L 289.753906 122.058594 " fill-opacity="1" fill-rule="nonzero"/></g><path fill="#7fcb4a" d="M 273.675781 123.652344 C 274.472656 124.503906 274.359375 125.902344 273.4375 126.753906 L 111.078125 277.277344 C 110.15625 278.140625 108.753906 278.140625 107.972656 277.289062 L 45.617188 210.199219 C 44.832031 209.347656 44.945312 207.964844 45.867188 207.109375 L 208.226562 56.589844 C 209.152344 55.722656 210.539062 55.722656 211.335938 56.578125 L 273.675781 123.652344 " fill-opacity="1" fill-rule="nonzero"/><path fill="#63a335" d="M 183.132812 145.152344 C 195.183594 158.113281 194.425781 178.367188 181.453125 190.390625 C 168.476562 202.414062 148.195312 201.660156 136.160156 188.699219 C 124.121094 175.753906 124.878906 155.496094 137.839844 143.476562 C 150.8125 131.453125 171.09375 132.207031 183.132812 145.152344 " fill-opacity="1" fill-rule="nonzero"/><path fill="#63a335" d="M 45.617188 210.199219 L 62.511719 228.386719 C 73.425781 218.28125 74.058594 201.253906 63.9375 190.347656 L 45.867188 207.109375 C 44.945312 207.964844 44.832031 209.347656 45.617188 210.199219 " fill-opacity="1" fill-rule="nonzero"/><path fill="#70b646" d="M 110.9375 277.402344 L 129.148438 260.527344 C 119.015625 249.636719 101.980469 248.996094 91.0625 259.117188 L 107.84375 277.148438 C 108.699219 278.085938 110.085938 278.199219 110.9375 277.402344 " fill-opacity="1" fill-rule="nonzero"/><path fill="#63a335" d="M 211.335938 56.578125 L 228.230469 74.75 C 217.324219 84.859375 200.277344 84.230469 190.160156 73.339844 L 208.226562 56.589844 C 209.152344 55.722656 210.539062 55.722656 211.335938 56.578125 " fill-opacity="1" fill-rule="nonzero"/><path fill="#63a335" d="M 273.5625 126.628906 L 255.367188 143.503906 C 245.234375 132.613281 245.878906 115.585938 256.78125 105.476562 L 273.550781 123.527344 C 274.417969 124.449219 274.417969 125.847656 273.5625 126.628906 " fill-opacity="1" fill-rule="nonzero"/><g clip-path="url(#70926581b5)"><path fill="#70b646" d="M 346.164062 222.683594 C 346.554688 224.027344 345.785156 225.453125 344.414062 225.832031 L 107.328125 294.023438 C 105.984375 294.402344 104.570312 293.632812 104.179688 292.277344 L 73.414062 185.582031 C 73.023438 184.226562 73.804688 182.8125 75.164062 182.421875 L 312.25 114.230469 C 313.605469 113.839844 315.019531 114.621094 315.414062 115.976562 L 346.164062 222.683594 " fill-opacity="1" fill-rule="nonzero"/></g><path fill="#8dd260" d="M 331.101562 216.867188 C 331.425781 217.988281 330.695312 219.160156 329.480469 219.511719 L 116.621094 280.742188 C 115.402344 281.09375 114.15625 280.464844 113.835938 279.34375 L 88.472656 191.382812 C 88.152344 190.28125 88.878906 189.078125 90.097656 188.726562 L 302.96875 127.511719 C 304.171875 127.175781 305.417969 127.789062 305.753906 128.910156 L 331.101562 216.867188 " fill-opacity="1" fill-rule="nonzero"/><path fill="#70b646" d="M 240.585938 195.269531 C 245.488281 212.253906 235.660156 229.996094 218.65625 234.890625 C 201.648438 239.78125 183.902344 229.96875 179.003906 212.984375 C 174.105469 195.996094 183.914062 178.257812 200.921875 173.363281 C 217.925781 168.484375 235.6875 178.285156 240.585938 195.269531 " fill-opacity="1" fill-rule="nonzero"/><path fill="#70b646" d="M 88.472656 191.382812 L 95.347656 215.21875 C 109.652344 211.125 117.894531 196.207031 113.792969 181.917969 L 90.097656 188.726562 C 88.878906 189.078125 88.152344 190.28125 88.472656 191.382812 " fill-opacity="1" fill-rule="nonzero"/><path fill="#70b646" d="M 116.4375 280.785156 L 140.304688 273.921875 C 136.1875 259.648438 121.269531 251.398438 106.964844 255.507812 L 113.78125 279.175781 C 114.128906 280.378906 115.320312 281.105469 116.4375 280.785156 " fill-opacity="1" fill-rule="nonzero"/><path fill="#70b646" d="M 305.753906 128.910156 L 312.628906 152.742188 C 298.324219 156.855469 283.390625 148.605469 279.273438 134.332031 L 302.96875 127.511719 C 304.171875 127.175781 305.417969 127.789062 305.753906 128.910156 " fill-opacity="1" fill-rule="nonzero"/><path fill="#70b646" d="M 329.660156 219.46875 L 305.796875 226.332031 C 301.683594 212.046875 309.941406 197.144531 324.230469 193.019531 L 331.046875 216.6875 C 331.398438 217.902344 330.78125 219.148438 329.660156 219.46875 " fill-opacity="1" fill-rule="nonzero"/><g clip-path="url(#952e1fa49e)"><path fill="#f68f34" d="M 237.648438 252.125 C 237.648438 298.078125 200.363281 335.320312 154.355469 335.320312 C 108.363281 335.320312 71.0625 298.078125 71.0625 252.125 C 71.0625 206.175781 108.363281 168.933594 154.355469 168.933594 C 200.363281 168.933594 237.648438 206.175781 237.648438 252.125 " fill-opacity="1" fill-rule="nonzero"/></g><path fill="#fabb34" d="M 218.921875 252.125 C 218.921875 287.734375 190.019531 316.613281 154.355469 316.613281 C 118.707031 316.613281 89.804688 287.734375 89.804688 252.125 C 89.804688 216.519531 118.707031 187.636719 154.355469 187.636719 C 190.019531 187.636719 218.921875 216.519531 218.921875 252.125 " fill-opacity="1" fill-rule="nonzero"/><g clip-path="url(#2e1ac3b14f)"><path stroke-linecap="round" transform="matrix(0.139965, 0, 0, -0.139798, -109.996138, 484.805584)" fill="none" stroke-linejoin="miter" d="M 2042.813306 1820.604289 C 2042.813306 1820.604289 2034.301121 1919.21209 1904.497262 1928.908012 C 1801.011408 1936.5921 1739.109676 1900.099669 1728.392694 1830.998764 C 1728.392694 1830.998764 1713.712662 1732.390963 1775.195762 1700.508985 C 1848.009838 1662.898868 2049.092788 1658.092821 2051.213857 1524.305869 C 2051.213857 1524.305869 2059.502773 1405.412076 1894.003551 1405.412076 C 1894.003551 1405.412076 1734.393087 1401.108987 1726.104172 1500.890358 " stroke="#f68f34" stroke-width="76.435997" stroke-opacity="1" stroke-miterlimit="10"/></g><path stroke-linecap="round" transform="matrix(0.139965, 0, 0, -0.139798, -109.996138, 484.805584)" fill="none" stroke-linejoin="miter" d="M 1819.794035 2014.690372 L 1819.794035 1923.403411 " stroke="#f68f34" stroke-width="76.435997" stroke-opacity="1" stroke-miterlimit="10"/><path stroke-linecap="round" transform="matrix(0.139965, 0, 0, -0.139798, -109.996138, 484.805584)" fill="none" stroke-linejoin="miter" d="M 1936.592389 2014.690372 L 1936.592389 1923.403411 " stroke="#f68f34" stroke-width="76.435997" stroke-opacity="1" stroke-miterlimit="10"/><path stroke-linecap="round" transform="matrix(0.139965, 0, 0, -0.139798, -109.996138, 484.805584)" fill="none" stroke-linejoin="miter" d="M 1830.287746 1405.412076 L 1830.287746 1314.013346 " stroke="#f68f34" stroke-width="76.435997" stroke-opacity="1" stroke-miterlimit="10"/><path stroke-linecap="round" transform="matrix(0.139965, 0, 0, -0.139798, -109.996138, 484.805584)" fill="none" stroke-linejoin="miter" d="M 1947.086101 1405.412076 L 1947.086101 1314.013346 " stroke="#f68f34" stroke-width="76.435997" stroke-opacity="1" stroke-miterlimit="10"/></svg>