<?xml version="1.0" encoding="UTF-8"?>
<svg xmlns="http://www.w3.org/2000/svg" id="Layer_1" data-name="Layer 1" viewBox="0 0 24 24">
  <path d="M19.782,12.493c1.985-1.997,3.218-4.476,3.218-6.493,0-3.813-4.009-6-11-6S1,2.187,1,6c0,2.017,1.233,4.495,3.218,6.493-.785,1.353-1.218,2.899-1.218,4.507,0,1.385,.309,2.714,.917,3.951,.911,1.852,2.846,3.049,4.931,3.049h6.306c2.085,0,4.022-1.198,4.933-3.054,.849-1.729,1.114-3.664,.766-5.599-.184-1.025-.563-1.98-1.069-2.855ZM12,3c3.69,0,8,.786,8,3,0,.938-.683,2.61-2.152,4.171-3.192-2.884-8.517-2.867-11.697-.001-1.469-1.561-2.151-3.232-2.151-4.17,0-2.214,4.31-3,8-3Zm5.393,16.624c-.411,.836-1.29,1.376-2.24,1.376h-6.306c-.95,0-1.828-.539-2.238-1.373-.404-.821-.609-1.705-.609-2.627,0-1.798,.796-3.485,2.185-4.631,1.092-.901,2.411-1.37,3.804-1.37,.404,0,.813,.039,1.226,.119,2.372,.459,4.254,2.373,4.685,4.761,.233,1.3,.059,2.595-.506,3.745Zm-2.461-3.265c.131,.619,.067,1.207-.139,1.725-.223,.561-.785,.917-1.389,.917h-2.814c-.58,0-1.133-.324-1.359-.858-.148-.351-.231-.736-.231-1.142,0-1.83,1.638-3.277,3.528-2.955,1.179,.201,2.156,1.144,2.404,2.314Z"/>
</svg>
